<?xml version="1.0" encoding="UTF-8"?>
<svg width="20px" height="20px" viewBox="0 0 20 20" version="1.1" xmlns="http://www.w3.org/2000/svg" xmlns:xlink="http://www.w3.org/1999/xlink">
    <!-- Generator: Sketch 52.3 (67297) - http://www.bohemiancoding.com/sketch -->
    <title>data_icon</title>
    <desc>Created with Sketch.</desc>
    <g id="Page-1" stroke="none" stroke-width="1" fill="none" fill-rule="evenodd">
        <g id="1.0数据统计分析-应用数据分析" transform="translate(-22.000000, -82.000000)" fill="#FFFFFF" fill-rule="nonzero">
            <g id="left_bar">
                <g id="data_icon" transform="translate(22.000000, 82.000000)">
                    <path d="M1,0 L1,0 C1.55228475,-1.01453063e-16 2,0.44771525 2,1 L2,20 L1,20 C0.44771525,20 6.76353751e-17,19.5522847 0,19 L0,1 C-6.76353751e-17,0.44771525 0.44771525,1.01453063e-16 1,0 Z" id="矩形"></path>
                    <path d="M10,9 L11,9 L11,28 C11,28.5522847 10.5522847,29 10,29 L10,29 C9.44771525,29 9,28.5522847 9,28 L9,10 C9,9.44771525 9.44771525,9 10,9 Z" id="矩形-copy-23" transform="translate(10.000000, 19.000000) rotate(-90.000000) translate(-10.000000, -19.000000) "></path>
                    <path d="M4.4127819,12.728064 C4.01068327,13.1066603 3.377805,13.0876078 2.99920874,12.6855092 C2.62061248,12.2834105 2.63966491,11.6505323 3.04176355,11.271936 L7.29007422,7.27193601 C7.58583662,6.99346071 8.02067254,6.92157946 8.3903194,7.09005822 L12.186559,8.82031974 L17.3363854,4.25192536 C17.7495356,3.88542114 18.3815704,3.92323519 18.7480746,4.3363854 C19.1145789,4.74953562 19.0767648,5.38157042 18.6636146,5.74807464 L13.027251,10.7480746 C12.7314247,11.0105011 12.308737,11.0739492 11.9489004,10.9099418 L8.17205345,9.18851912 L4.4127819,12.728064 Z" id="路径-8"></path>
                </g>
            </g>
        </g>
    </g>
</svg>