<?xml version="1.0" encoding="UTF-8"?>
<svg width="48px" height="48px" viewBox="0 0 48 48" version="1.1" xmlns="http://www.w3.org/2000/svg" xmlns:xlink="http://www.w3.org/1999/xlink">
    <!-- Generator: Sketch 52.3 (67297) - http://www.bohemiancoding.com/sketch -->
    <title>default_application</title>
    <desc>Created with Sketch.</desc>
    <g id="Page-1" stroke="none" stroke-width="1" fill="none" fill-rule="evenodd">
        <g id="1.1应用数据分析-基础分析" transform="translate(-148.000000, -110.000000)" fill-rule="nonzero">
            <g id="info" transform="translate(112.000000, 84.000000)">
                <g id="default_application" transform="translate(36.000000, 26.000000)">
                    <rect id="矩形" fill="#7089FF" x="0" y="0" width="48" height="48" rx="4"></rect>
                    <path d="M34.543385,13.5546249 C32.5771756,13.9681996 30.477299,14.063036 28.5516952,13.4049861 C26.7328688,12.8462842 25.1882049,11.7278279 23.7401821,10.5459366 L23.391095,10.5459366 L23.4059837,10.5819101 C23.7487243,11.1474397 23.5882273,11.8180323 23.5967996,12.4361084 C23.5813695,13.7853845 23.6070863,15.1352021 23.6373449,16.4844482 C23.868646,16.6484344 24.164585,16.7747025 24.2348476,17.0756946 C24.7300845,18.3575957 25.2053796,19.6485804 25.7000751,20.9309929 C27.3304016,20.949912 28.9607281,20.9035315 30.58931,20.9515362 C31.1291228,20.9012756 31.450147,21.6496203 30.9640238,21.9334979 C29.674182,22.9446354 28.3546231,23.9180549 27.0522387,24.9119276 C27.4658134,26.3817269 28.0952591,27.7835797 28.5151201,29.2511232 C28.6545023,29.8041403 27.9176175,30.1719962 27.4932146,29.8504005 C26.1844838,28.9946468 24.8821296,28.1286665 23.5859714,27.2501436 C23.7121794,30.6512315 23.4636736,34.0569515 23.6910645,37.4541594 L23.7938717,37.4541594 C25.3407914,36.8839677 26.7523294,36.0243339 28.217587,35.2863061 C29.6016937,34.5967943 30.9080784,33.669605 31.7392583,32.358137 C33.3033226,29.9702921 33.9419421,27.1467048 34.5205857,24.4012606 C35.1112606,21.2778241 35.54204,18.1222341 35.7881997,14.9541316 C35.8526572,14.2795386 35.3316734,13.4009255 34.543385,13.5545948 L34.543385,13.5546249 Z M23.5859113,27.2501135 C22.2857527,28.1052356 21.0004528,28.9820741 19.6997228,29.8400837 C19.2758613,30.2016833 18.467601,29.8103364 18.6263836,29.2470627 C19.0936178,27.8109809 19.5991715,26.3856973 20.1326979,24.9730765 C18.8040252,23.8106157 17.2959364,22.8566568 15.9632633,21.6981965 C15.8284831,21.2943671 16.1694792,20.9327073 16.580798,20.949912 C18.2088386,20.9035315 19.8368792,20.9578226 21.4648897,20.9224507 C21.9424707,19.6148628 22.4331056,18.3112754 22.9409453,17.0145758 C23.0203516,16.6883782 23.3693786,16.6089718 23.6373148,16.4844182 C23.6070562,15.1351721 23.5813695,13.7853545 23.5967695,12.4360783 C23.5881972,11.8179721 23.7486943,11.1474096 23.4059536,10.58188 C20.7622939,13.4220103 16.4220154,14.4537513 12.6666669,13.5585952 C11.7709694,13.3883829 11.2848161,14.4457205 11.4328006,15.1768905 C11.7880839,19.1247693 12.2982395,23.0748739 13.2556274,26.927826 C13.8360456,29.1076504 14.5517554,31.340653 16.0319017,33.1086773 C17.0109759,34.3008252 18.4270857,35.0046241 19.7809338,35.7026479 C20.9913692,36.3098358 22.1567174,37.0312905 23.4533568,37.4540992 L23.6904629,37.4540992 C23.4636736,34.0569515 23.7121493,30.6512014 23.5859113,27.2500834 L23.5859113,27.2501135 Z" id="形状" fill="#FFFFFF"></path>
                </g>
            </g>
        </g>
    </g>
</svg>