<?xml version="1.0" encoding="UTF-8"?>
<svg width="20px" height="20px" viewBox="0 0 20 20" version="1.1" xmlns="http://www.w3.org/2000/svg" xmlns:xlink="http://www.w3.org/1999/xlink">
    <!-- Generator: Sketch 52.3 (67297) - http://www.bohemiancoding.com/sketch -->
    <title>expand_icon</title>
    <desc>Created with Sketch.</desc>
    <g id="Page-1" stroke="none" stroke-width="1" fill="none" fill-rule="evenodd">
        <g id="1.0数据统计分析-应用数据分析" transform="translate(-22.000000, -20.000000)" fill="#FAAD14" fill-rule="nonzero">
            <g id="expand_icon" transform="translate(22.000000, 20.000000)">
                <path d="M1.72857893,17.2285981 L18.5857437,17.2285981 C19.1380285,17.2285981 19.5857437,17.6763134 19.5857437,18.2285981 L19.5857437,18.2285981 C19.5857437,18.7808829 19.1380285,19.2285981 18.5857437,19.2285981 L1.72857893,19.2285981 C1.17629418,19.2285981 0.728578926,18.7808829 0.728578926,18.2285981 L0.728578926,18.2285981 C0.728578926,17.6763134 1.17629418,17.2285981 1.72857893,17.2285981 Z" id="路径"></path>
                <path d="M18.7137948,10.2842782 L16.5263831,12.1800351 C16.1090275,12.5417432 15.4774716,12.4966321 15.1157634,12.0792765 C14.9581927,11.8974641 14.8714525,11.6649376 14.8714525,11.424346 L14.8714525,7.63283234 C14.8714525,7.08054759 15.3191678,6.63283234 15.8714525,6.63283234 C16.1120441,6.63283234 16.3445706,6.71957248 16.5263831,6.87714326 L18.7137948,8.77290008 C19.1311503,9.13460823 19.1762615,9.76616415 18.8145533,10.1835197 C18.7834058,10.2194591 18.7497342,10.2531308 18.7137948,10.2842782 Z" id="路径"></path>
                <path d="M1.72857893,8.90001701 L11.5143069,8.90001701 C12.0665917,8.90001701 12.5143069,9.34773226 12.5143069,9.90001701 L12.5143069,9.90001701 C12.5143069,10.4523018 12.0665917,10.900017 11.5143069,10.900017 L1.72857893,10.900017 C1.17629418,10.900017 0.728578926,10.4523018 0.728578926,9.90001701 L0.728578926,9.90001701 C0.728578926,9.34773226 1.17629418,8.90001701 1.72857893,8.90001701 Z" id="路径"></path>
                <path d="M1.72857893,0.728578926 L18.5857437,0.728578926 C19.1380285,0.728578926 19.5857437,1.17629418 19.5857437,1.72857893 L19.5857437,1.72857893 C19.5857437,2.28086368 19.1380285,2.72857893 18.5857437,2.72857893 L1.72857893,2.72857893 C1.17629418,2.72857893 0.728578926,2.28086368 0.728578926,1.72857893 L0.728578926,1.72857893 C0.728578926,1.17629418 1.17629418,0.728578926 1.72857893,0.728578926 Z" id="路径"></path>
            </g>
        </g>
    </g>
</svg>