<?xml version="1.0" encoding="UTF-8"?>
<svg width="24px" height="24px" viewBox="0 0 24 24" version="1.1" xmlns="http://www.w3.org/2000/svg" xmlns:xlink="http://www.w3.org/1999/xlink">
    <!-- Generator: Sketch 52.3 (67297) - http://www.bohemiancoding.com/sketch -->
    <title>jzgk_Icon</title>
    <desc>Created with Sketch.</desc>
    <g id="Page-1" stroke="none" stroke-width="1" fill="none" fill-rule="evenodd">
        <g id="1.0数据统计分析-应用数据分析" transform="translate(-20.000000, -144.000000)" fill="#FFFFFF">
            <g id="left_bar">
                <g id="jzgk_Icon" transform="translate(20.000000, 144.000000)">
                    <path d="M1.33,7.09733333 L7.09666667,1.33066667 C8.86966667,-0.442333333 11.7706667,-0.442333333 13.544,1.33066667 C15.317,3.10366667 15.317,6.005 13.544,7.778 C10.7923333,10.5303333 8.042,13.331 5.25133333,16.1213333 C4.36358818,17.0089766 4.2654116,18.4149743 5.0211804,19.4173792 C5.7769492,20.419784 7.15569204,20.71225 8.25333333,20.103 L8.609,21.361 C6.83,22.4686667 4.44566667,22.2503333 2.904,20.7103333 C1.11,18.916 1.135,16.006 2.929,14.2123333 C5.74433333,11.3976667 8.54766667,8.593 11.3793333,5.79566667 C12.015,5.16733333 12.0126667,4.129 11.3793333,3.49566667 C10.7430732,2.86327952 9.71559342,2.86327952 9.07933333,3.49566667 L2.79066667,9.78366667 C1.89333333,10.6813333 2.53533333,12.5186667 3.20166667,13.133 L2.14466667,14.1906667 C1.84919198,14.0072215 1.57583438,13.7903473 1.33,13.5443333 C-0.443333333,11.7713333 -0.443333333,8.87 1.33,7.097 L1.33,7.09733333 Z" id="路径"></path>
                    <path d="M22.629,16.8863333 L16.8623333,22.653 C15.0893333,24.4263333 12.188,24.4263333 10.415,22.653 C8.642,20.8796667 8.64166667,17.9786667 10.415,16.2056667 C13.168,13.4526667 15.9176667,10.652 18.709,7.86133333 C19.5961149,6.97357418 19.6939339,5.56803922 18.9383437,4.56595509 C18.1827534,3.56387097 16.8045303,3.27129943 15.707,3.88 L15.3513333,2.622 C17.1296667,1.51433333 19.514,1.731 21.0556667,3.27266667 C22.85,5.06633333 22.8246667,7.97666667 21.0306667,9.77033333 C18.216,12.5853333 15.4126667,15.3896667 12.581,18.187 C11.945,18.8153333 11.9476667,19.8536667 12.581,20.487 C13.2171849,21.1195694 14.2448151,21.1195694 14.881,20.487 L21.1696667,14.1983333 C22.067,13.301 21.4253333,11.4633333 20.7586667,10.8483333 L21.816,9.79133333 C22.1110247,9.97508229 22.3838332,10.1923001 22.629,10.4386667 C24.4016667,12.2116667 24.4016667,15.1126667 22.629,16.886 L22.629,16.8863333 Z" id="路径"></path>
                </g>
            </g>
        </g>
    </g>
</svg>