<?xml version="1.0" encoding="UTF-8"?>
<svg width="22px" height="24px" viewBox="0 0 22 24" version="1.1" xmlns="http://www.w3.org/2000/svg" xmlns:xlink="http://www.w3.org/1999/xlink">
    <!-- Generator: Sketch 52.3 (67297) - http://www.bohemiancoding.com/sketch -->
    <title>set_icon</title>
    <desc>Created with Sketch.</desc>
    <g id="Page-1" stroke="none" stroke-width="1" fill="none" fill-rule="evenodd">
        <g id="1.0数据统计分析-应用数据分析" transform="translate(-21.000000, -208.000000)" fill="#FFFFFF" fill-rule="nonzero">
            <g id="left_bar">
                <g id="set_icon" transform="translate(20.000000, 208.000000)">
                    <path d="M3.60769515,7.15470054 L3.60769515,16.8452995 L12,21.6905989 L20.3923048,16.8452995 L20.3923048,7.15470054 L12,2.30940108 L3.60769515,7.15470054 Z M12,0 L22.3923048,6 L22.3923048,18 L12,24 L1.60769515,18 L1.60769515,6 L12,0 Z" id="多边形"></path>
                    <path d="M11.9952875,15.0000175 C11.2626695,15.0000175 10.5631374,14.7398609 10.0077657,14.2570478 C9.40040168,13.7297035 9.03645594,12.9984526 8.98210041,12.1992329 C8.87338935,10.549231 10.1377463,9.11719811 11.8014982,9.00704173 C12.6026515,8.95547917 13.3848985,9.21563572 13.9946258,9.74298009 C14.6019898,10.2703245 14.9659355,11.0015753 15.020291,11.800795 C15.1290021,13.4507969 13.8646452,14.8828298 12.2008932,14.9929862 C12.1299947,14.9976737 12.0638227,15.0000175 11.9952875,15.0000175 Z" id="路径"></path>
                </g>
            </g>
        </g>
    </g>
</svg>